HIERARCHY
ROOT Hips
{
 OFFSET 0.000000 0.000000 0.000000
 CHANNELS 6 Xposition Yposition Zposition Yrotation Xrotation Zrotation
 JOINT Chest
 {
  OFFSET 0.000000 9.588913 -0.003946
  CHANNELS 3 Yrotation Xrotation Zrotation
  JOINT Chest2
  {
   OFFSET 0.000000 9.541882 0.008053
   CHANNELS 3 Yrotation Xrotation Zrotation
   JOINT Chest3
   {
    OFFSET 0.000000 9.501360 0.000000
    CHANNELS 3 Yrotation Xrotation Zrotation
    JOINT Chest4
    {
     OFFSET 0.000000 9.491660 0.000000
     CHANNELS 3 Yrotation Xrotation Zrotation
     JOINT Neck
     {
      OFFSET 0.000000 14.331917 0.000000
      CHANNELS 3 Yrotation Xrotation Zrotation
      JOINT Head
      {
       OFFSET 0.000000 8.884799 0.017034
       CHANNELS 3 Yrotation Xrotation Zrotation
       End Site
       {
        OFFSET 0.000000 16.896195 0.008993
       }
      }
     }
     JOINT RightCollar
     {
      OFFSET -2.923010 9.499495 0.000000
      CHANNELS 3 Yrotation Xrotation Zrotation
      JOINT RightShoulder
      {
       OFFSET -13.795216 0.000000 0.000000
       CHANNELS 3 Yrotation Xrotation Zrotation
       JOINT RightElbow
       {
        OFFSET -30.272209 0.000000 0.000000
        CHANNELS 3 Yrotation Xrotation Zrotation
        JOINT RightWrist
        {
         OFFSET -24.478199 0.000000 0.000000
         CHANNELS 3 Yrotation Xrotation Zrotation
         End Site
         {
          OFFSET -18.090752 0.000000 0.000000
         }
        }
       }
      }
     }
     JOINT LeftCollar
     {
      OFFSET 2.923010 9.499495 0.000000
      CHANNELS 3 Yrotation Xrotation Zrotation
      JOINT LeftShoulder
      {
       OFFSET 13.795216 0.000000 0.000000
       CHANNELS 3 Yrotation Xrotation Zrotation
       JOINT LeftElbow
       {
        OFFSET 30.272209 0.000000 0.000000
        CHANNELS 3 Yrotation Xrotation Zrotation
        JOINT LeftWrist
        {
         OFFSET 24.478199 0.000000 0.000000
         CHANNELS 3 Yrotation Xrotation Zrotation
         End Site
         {
          OFFSET 18.090752 0.000000 0.000000
         }
        }
       }
      }
     }
    }
   }
  }
 }
 JOINT RightHip
 {
  OFFSET -7.826875 0.019532 0.001973
  CHANNELS 3 Yrotation Xrotation Zrotation
  JOINT RightKnee
  {
   OFFSET 0.000000 -40.546152 -0.001885
   CHANNELS 3 Yrotation Xrotation Zrotation
   JOINT RightAnkle
   {
    OFFSET 0.000000 -39.417092 -0.003189
    CHANNELS 3 Yrotation Xrotation Zrotation
    JOINT RightToe
    {
     OFFSET 0.000000 -7.579396 17.243563
     CHANNELS 3 Yrotation Xrotation Zrotation
     End Site
     {
      OFFSET 0.000000 -1.500329 6.694466
     }
    }
   }
  }
 }
 JOINT LeftHip
 {
  OFFSET 7.826875 0.019532 0.001973
  CHANNELS 3 Yrotation Xrotation Zrotation
  JOINT LeftKnee
  {
   OFFSET 0.000000 -40.546152 -0.001885
   CHANNELS 3 Yrotation Xrotation Zrotation
   JOINT LeftAnkle
   {
    OFFSET 0.000000 -39.417092 -0.003189
    CHANNELS 3 Yrotation Xrotation Zrotation
    JOINT LeftToe
    {
     OFFSET 0.000000 -7.579396 17.243563
     CHANNELS 3 Yrotation Xrotation Zrotation
     End Site
     {
      OFFSET 0.000000 -1.500329 6.694466
     }
    }
   }
  }
 }
}
MOTION
Frames: 17
Frame Time: 0.008333
-12.566905 89.165802 1.593250 -134.398759 -5.270667 -0.447415 0.557564 1.698158 0.241629 0.314164 0.970265 0.140728 0.393091 1.212710 0.176747 0.314164 0.970265 0.140728 -3.611527 23.920413 0.244039 -3.974655 0.145375 1.090521 -2.665901 -0.020960 -2.905682 8.386491 0.798269 91.222619 3.878614 1.468474 2.250169 -0.587756 -3.404223 -3.951507 0.518266 -0.164290 2.788378 -7.830042 -0.649842 -90.951418 1.585404 4.263519 0.253381 0.407609 -6.198705 -0.849036 -2.017905 7.454083 1.400375 1.109130 1.303304 -0.447032 1.086887 -3.313768 -0.899615 -0.001695 -0.016736 0.001607 6.240714 8.115229 0.091340 4.246368 1.817659 0.368864 2.834053 -4.766213 0.379888 0.002002 0.003992 -0.000531
-12.564021 89.165657 1.591962 -134.391885 -5.272393 -0.444082 0.556959 1.696161 0.240436 0.313982 0.969168 0.139997 0.392861 1.211338 0.175832 0.313982 0.969168 0.139997 -3.542887 23.917152 0.228963 -3.895955 0.137716 1.058375 -2.666238 -0.019087 -2.902087 8.381928 0.796425 91.222910 3.878817 1.474748 2.253585 -0.637940 -3.402614 -3.896151 0.512410 -0.162632 2.785908 -7.831637 -0.661318 -90.938034 1.581710 4.262815 0.256434 0.414892 -6.202443 -0.849895 -2.020887 7.454212 1.400465 1.108534 1.305970 -0.448642 1.083226 -3.314894 -0.901957 -0.001305 -0.015372 0.001535 6.245101 8.115282 0.091717 4.242072 1.819135 0.367292 2.828111 -4.765017 0.381516 0.001228 0.005373 -0.002112
-12.560685 89.165444 1.591166 -134.385984 -5.271162 -0.439018 0.557601 1.693646 0.238333 0.314488 0.967788 0.138474 0.393490 1.209615 0.173929 0.314488 0.967788 0.138474 -3.473613 23.912605 0.215258 -3.816904 0.128565 1.027581 -2.667332 -0.019291 -2.894505 8.371969 0.797234 91.221299 3.881902 1.477288 2.254351 -0.686267 -3.403410 -3.842370 0.507616 -0.160671 2.783324 -7.836064 -0.677101 -90.920623 1.579506 4.256871 0.258294 0.415790 -6.208778 -0.848032 -2.023986 7.453376 1.399468 1.108563 1.303706 -0.451075 1.078992 -3.314424 -0.903931 -0.000540 -0.013120 0.001496 6.250187 8.112730 0.090341 4.237059 1.819698 0.364974 2.822903 -4.763969 0.382480 0.000536 0.007068 -0.002486
-12.556981 89.165212 1.590479 -134.380733 -5.268827 -0.433171 0.559368 1.691937 0.236164 0.315619 0.966892 0.136775 0.394898 1.208496 0.171807 0.315619 0.966892 0.136775 -3.404043 23.906410 0.203513 -3.738003 0.117515 0.998853 -2.670368 -0.020923 -2.886465 8.356632 0.796299 91.218982 3.885551 1.478557 2.253256 -0.732072 -3.404377 -3.792874 0.501950 -0.160877 2.779671 -7.840314 -0.694818 -90.902595 1.580258 4.247829 0.262577 0.411724 -6.214066 -0.843694 -2.028899 7.452988 1.397327 1.110175 1.297929 -0.452713 1.074965 -3.312830 -0.907124 0.000333 -0.010530 0.002021 6.255970 8.108173 0.087666 4.229976 1.821712 0.363623 2.820930 -4.763616 0.381274 0.000126 0.008444 -0.001575
-12.552602 89.164980 1.589655 -134.375327 -5.264969 -0.428657 0.561867 1.688380 0.234339 0.317130 0.964958 0.135304 0.396783 1.206079 0.169971 0.317130 0.964958 0.135304 -3.332382 23.902727 0.194770 -3.657592 0.109544 0.972908 -2.678241 -0.017638 -2.877936 8.342382 0.792363 91.215355 3.886018 1.480793 2.252233 -0.773918 -3.404210 -3.749412 0.491329 -0.158063 2.778149 -7.844114 -0.712831 -90.888515 1.584147 4.235506 0.270393 0.411285 -6.215281 -0.837014 -2.035450 7.451870 1.394553 1.110081 1.290026 -0.449924 1.074304 -3.309744 -0.913285 0.001216 -0.008459 0.002748 6.258304 8.101160 0.086657 4.222167 1.824759 0.362106 2.820919 -4.763336 0.379076 0.000041 0.009463 -0.000637
-12.547405 89.164758 1.588722 -134.369595 -5.258798 -0.425786 0.564245 1.681119 0.233182 0.318551 0.960767 0.134328 0.398554 1.200841 0.168751 0.318551 0.960767 0.134328 -3.256985 23.904447 0.188502 -3.573793 0.108075 0.948800 -2.688372 -0.007572 -2.869747 8.334751 0.787603 91.210307 3.881411 1.481119 2.251475 -0.809671 -3.404704 -3.711767 0.479409 -0.147996 2.777088 -7.853139 -0.732360 -90.876540 1.591926 4.219863 0.280055 0.418485 -6.216468 -0.831805 -2.043960 7.448910 1.392716 1.108595 1.280757 -0.445894 1.077577 -3.305313 -0.920271 0.001666 -0.007021 0.003382 6.254883 8.092455 0.087301 4.216402 1.825792 0.360230 2.821803 -4.762383 0.376857 0.000298 0.010832 -0.000329
-12.541633 89.164576 1.587760 -134.365451 -5.251079 -0.422945 0.566278 1.672250 0.232459 0.319646 0.955475 0.133679 0.399920 1.194226 0.167938 0.319646 0.955475 0.133679 -3.177661 23.909541 0.183390 -3.486066 0.110624 0.925050 -2.696097 0.004457 -2.863387 8.332122 0.782188 91.206016 3.873834 1.479166 2.248697 -0.840347 -3.407731 -3.678525 0.472896 -0.135059 2.772734 -7.862423 -0.753333 -90.863974 1.603415 4.208489 0.293804 0.430886 -6.216986 -0.834034 -2.053637 7.444944 1.391367 1.112881 1.269869 -0.442847 1.078011 -3.300306 -0.926052 0.001846 -0.005373 0.003295 6.249711 8.083201 0.087856 4.215894 1.824995 0.357539 2.821630 -4.761276 0.375912 0.000653 0.012417 -0.000756
-12.535487 89.164442 1.587032 -134.361505 -5.241716 -0.418337 0.566694 1.663559 0.230858 0.319819 0.950376 0.132485 0.400131 1.187853 0.166441 0.319819 0.950376 0.132485 -3.093400 23.915545 0.179409 -3.393270 0.114171 0.901400 -2.698811 0.015899 -2.857904 8.331109 0.773530 91.203297 3.865797 1.479782 2.243779 -0.870297 -3.413791 -3.650724 0.472949 -0.124943 2.767218 -7.864709 -0.773498 -90.852624 1.616281 4.202672 0.312416 0.447740 -6.215364 -0.848063 -2.065063 7.439469 1.387752 1.122714 1.258080 -0.438886 1.074870 -3.295341 -0.931763 0.002103 -0.003385 0.002799 6.244846 8.072747 0.086921 4.218921 1.822818 0.354072 2.817808 -4.758671 0.375238 0.000965 0.013310 -0.000869
-12.529161 89.164373 1.586518 -134.355267 -5.231855 -0.411583 0.564020 1.656388 0.228189 0.318432 0.946319 0.130702 0.398391 1.182784 0.164205 0.318432 0.946319 0.130702 -3.002858 23.921337 0.175732 -3.293740 0.117301 0.876645 -2.693694 0.024583 -2.854005 8.330352 0.761127 91.201815 3.856069 1.482413 2.237641 -0.903302 -3.418919 -3.626447 0.480249 -0.121977 2.762038 -7.861935 -0.791689 -90.842894 1.628117 4.193648 0.328883 0.470131 -6.214153 -0.877082 -2.079337 7.432812 1.381322 1.132410 1.247808 -0.434318 1.073057 -3.291717 -0.938298 0.002263 -0.001384 0.002877 6.239377 8.060758 0.083904 4.219873 1.821659 0.351054 2.812733 -4.755025 0.373723 0.001071 0.013313 -0.000500
-12.522797 89.164414 1.585643 -134.347570 -5.224725 -0.404628 0.559655 1.651534 0.225307 0.316179 0.943525 0.128910 0.395569 1.179294 0.161956 0.316179 0.943525 0.128910 -2.907044 23.927809 0.171794 -3.188463 0.121150 0.850405 -2.682517 0.029756 -2.849975 8.330085 0.747854 91.199465 3.844095 1.483113 2.230598 -0.942081 -3.422529 -3.600728 0.492103 -0.124014 2.756963 -7.857205 -0.808222 -90.832131 1.635835 4.176488 0.336946 0.500531 -6.211338 -0.921631 -2.094593 7.427637 1.374770 1.140461 1.240988 -0.429915 1.072316 -3.290479 -0.945251 0.002112 0.000368 0.003165 6.233013 8.049625 0.079812 4.218155 1.823984 0.350237 2.811450 -4.752884 0.371189 0.001249 0.013058 -0.000354
-12.516137 89.164556 1.584023 -134.339949 -5.220865 -0.400262 0.556376 1.648273 0.223333 0.314497 0.941674 0.127605 0.393462 1.176982 0.160319 0.314497 0.941674 0.127605 -2.809447 23.935374 0.168067 -3.081362 0.126380 0.823990 -2.670391 0.032407 -2.843400 8.331354 0.736768 91.193497 3.832539 1.480338 2.224661 -0.987402 -3.428184 -3.575452 0.500524 -0.125744 2.750902 -7.851185 -0.825426 -90.819365 1.638476 4.154033 0.337104 0.542196 -6.206744 -0.977148 -2.108448 7.424124 1.371758 1.146066 1.237578 -0.426410 1.072647 -3.289463 -0.951413 0.001736 0.000559 0.002708 6.226934 8.041736 0.077149 4.216558 1.825819 0.352193 2.813939 -4.751205 0.367577 0.001852 0.013189 -0.000591
-12.508934 89.164741 1.581928 -134.332748 -5.217895 -0.398546 0.555794 1.645750 0.222368 0.314203 0.940381 0.126907 0.393092 1.175366 0.159445 0.314203 0.940381 0.126907 -2.713250 23.942648 0.165410 -2.976084 0.131454 0.799063 -2.663513 0.034136 -2.834374 8.336821 0.727307 91.180528 3.822893 1.477529 2.221629 -1.036935 -3.438029 -3.551853 0.501143 -0.125361 2.743877 -7.843731 -0.847630 -90.805972 1.640095 4.133149 0.335260 0.593618 -6.201979 -1.041524 -2.120564 7.419266 1.372789 1.149743 1.237801 -0.424524 1.074498 -3.287764 -0.956352 0.001620 -0.000877 0.001627 6.222214 8.034971 0.077784 4.215828 1.826606 0.353678 2.815028 -4.749178 0.364817 0.002195 0.013383 -0.001370
-12.501435 89.164928 1.579794 -134.328235 -5.214678 -0.396632 0.558257 1.644047 0.221306 0.315596 0.939454 0.126320 0.394832 1.174208 0.158714 0.315596 0.939454 0.126320 -2.618945 23.948503 0.164683 -2.873347 0.135032 0.776666 -2.667048 0.036084 -2.823802 8.346506 0.716114 91.160177 3.814046 1.482308 2.220195 -1.090960 -3.454533 -3.526529 0.496129 -0.124642 2.738729 -7.836077 -0.873759 -90.794486 1.642198 4.119285 0.339590 0.654029 -6.197131 -1.116941 -2.130466 7.412645 1.374451 1.153412 1.240311 -0.423583 1.077649 -3.286780 -0.960863 0.001989 -0.002053 0.000665 6.221070 8.026776 0.080524 4.216010 1.830624 0.352146 2.810981 -4.748665 0.363446 0.001637 0.013158 -0.002053
-12.494116 89.165107 1.577931 -134.326236 -5.211509 -0.391486 0.562087 1.643636 0.219273 0.317882 0.939173 0.125128 0.397686 1.173857 0.157229 0.317882 0.939173 0.125128 -2.525192 23.951994 0.166240 -2.771758 0.135914 0.756872 -2.676544 0.034797 -2.813350 8.356981 0.704176 91.136823 3.804096 1.495066 2.219264 -1.156079 -3.477259 -3.498439 0.489350 -0.125712 2.736594 -7.830816 -0.899352 -90.788633 1.642444 4.115184 0.355903 0.728376 -6.193075 -1.200042 -2.139986 7.406578 1.372940 1.156930 1.241567 -0.423732 1.083347 -3.286393 -0.964984 0.002319 -0.001947 0.000359 6.222450 8.018515 0.081314 4.215608 1.836031 0.349522 2.803683 -4.748233 0.362054 0.000908 0.012259 -0.002362
-12.487054 89.165269 1.576423 -134.320053 -5.207990 -0.383374 0.564981 1.643612 0.215787 0.319481 0.939022 0.122927 0.399680 1.173669 0.154482 0.319481 0.939022 0.122927 -2.432619 23.953891 0.170752 -2.672160 0.135058 0.740549 -2.685287 0.031129 -2.804346 8.369400 0.691781 91.117328 3.789675 1.511639 2.216167 -1.232788 -3.505813 -3.474418 0.480771 -0.125422 2.738732 -7.835213 -0.925722 -90.788548 1.642876 4.120086 0.383111 0.820750 -6.191576 -1.293477 -2.155549 7.400910 1.367710 1.161264 1.241843 -0.424528 1.089262 -3.286488 -0.969255 0.002185 -0.001261 0.000877 6.219274 8.010614 0.078728 4.212054 1.840204 0.347132 2.798354 -4.746084 0.359884 0.000808 0.010840 -0.002175
-12.480111 89.165426 1.574939 -134.308892 -5.204790 -0.374794 0.566299 1.643150 0.211384 0.320043 0.938503 0.120236 0.400375 1.173023 0.151119 0.320043 0.938503 0.120236 -2.342645 23.955648 0.176550 -2.575727 0.134248 0.726219 -2.691700 0.028918 -2.798164 8.385467 0.676748 91.106040 3.767818 1.530679 2.208193 -1.310203 -3.539953 -3.464990 0.470824 -0.121084 2.744313 -7.854301 -0.954344 -90.789702 1.646199 4.124646 0.411632 0.932703 -6.189826 -1.412524 -2.176877 7.394655 1.361417 1.168493 1.244887 -0.425393 1.091958 -3.288161 -0.973787 0.001739 -0.000815 0.001618 6.211849 8.003526 0.075155 4.206625 1.843080 0.344193 2.796618 -4.742811 0.357284 0.000899 0.009452 -0.001246
-12.473374 89.165617 1.572961 -134.298859 -5.204602 -0.367614 0.566411 1.642890 0.207716 0.320165 0.938222 0.118040 0.400522 1.172674 0.148374 0.320165 0.938222 0.118040 -2.254949 23.957518 0.180518 -2.481390 0.133727 0.710430 -2.697316 0.027748 -2.795720 8.405023 0.661287 91.101227 3.740210 1.551281 2.195872 -1.374714 -3.577521 -3.470347 0.466222 -0.114383 2.749829 -7.883765 -0.981478 -90.791179 1.647865 4.120001 0.429739 1.066813 -6.181517 -1.558986 -2.196553 7.390149 1.356989 1.175679 1.251173 -0.426940 1.093630 -3.291159 -0.977902 0.001140 -0.000845 0.002062 6.206783 8.000450 0.072691 4.202683 1.843570 0.342036 2.796804 -4.738522 0.353702 0.001085 0.008321 0.000108
